<?xml version="1.0" encoding="UTF-8"?>
<svg id="Layer_2" data-name="Layer 2" xmlns="http://www.w3.org/2000/svg" viewBox="0 0 35.66 35.35">
  <defs>
    <style>
      .cls-1 {
        font-size: 8.69px;
      }

      .cls-1, .cls-2 {
        font-family: BodoniSvtyTwoITCTT-Book, 'Bodoni 72';
      }

      .cls-1, .cls-2, .cls-3 {
        fill: #fff;
      }

      .cls-2 {
        font-size: 3.33px;
      }

      .cls-3 {
        stroke-width: 0px;
      }
    </style>
  </defs>
  <g id="Layer_2-2" data-name="Layer 2">
    <path class="cls-3" d="M4.55,4.5v26.56h26.56V4.5H4.55ZM7.87,29.95h-2.21v-2.22h2.22v2.22h0ZM7.87,25.53h-2.21v-2.22h2.22v2.22h0ZM7.87,21.1h-2.21v-2.22h2.22v2.22h0ZM7.87,16.67h-2.21v-2.22h2.22v2.22h0ZM7.87,12.24h-2.21v-2.22h2.22v2.22h0ZM7.87,7.81h-2.21v-2.21h2.22v2.21h0ZM26.69,28.85H8.98v-9.97h17.71v9.97ZM26.69,16.67H8.98V6.7h17.71v9.97ZM30.01,29.95h-2.22v-2.22h2.22v2.22ZM30.01,25.53h-2.22v-2.22h2.22v2.22ZM30.01,21.1h-2.22v-2.22h2.22v2.22ZM30.01,16.67h-2.22v-2.22h2.22v2.22ZM30.01,12.24h-2.22v-2.22h2.22v2.22ZM30.01,7.81h-2.22v-2.21h2.22v2.21Z"/>
  </g>
  <g id="Layer_4" data-name="Layer 4">
    <text class="cls-1" transform="translate(10.64 14.55)"><tspan x="0" y="0">TIM</tspan></text>
    <text class="cls-1" transform="translate(11.03 26.42)"><tspan x="0" y="0">zine</tspan></text>
    <text class="cls-2" transform="translate(19.77 2.83) scale(1.04 1)"><tspan x="0" y="0">A</tspan><tspan x="2.01" y="0">c</tspan><tspan x="3.37" y="0">t</tspan><tspan x="4.3" y="0">u</tspan><tspan x="5.95" y="0">a</tspan><tspan x="7.26" y="0">l</tspan><tspan x="8.05" y="0">i</tspan><tspan x="8.88" y="0">t</tspan><tspan x="9.82" y="0">é</tspan><tspan x="11.27" y="0">s</tspan><tspan x="12.22" y="0"> </tspan></text>
    <text class="cls-2" transform="translate(32.83 2.95) rotate(90) scale(1.04 1)"><tspan x="0" y="0">c</tspan><tspan x="1.34" y="0">u</tspan><tspan x="2.98" y="0">l</tspan><tspan x="3.76" y="0">t</tspan><tspan x="4.7" y="0">u</tspan><tspan x="6.33" y="0">r</tspan><tspan x="7.46" y="0">e</tspan><tspan x="8.9" y="0">l</tspan><tspan x="9.68" y="0">l</tspan><tspan x="10.45" y="0">e</tspan><tspan x="11.89" y="0">s</tspan><tspan x="13.11" y="0"> </tspan><tspan x="13.74" y="0">n</tspan><tspan x="15.34" y="0">u</tspan><tspan x="16.99" y="0">m</tspan><tspan x="19.33" y="0">é</tspan><tspan x="20.75" y="0">r</tspan><tspan x="21.87" y="0">i</tspan><tspan x="22.71" y="0">q</tspan><tspan x="24.27" y="0">u</tspan><tspan x="25.9" y="0">e</tspan><tspan x="27.31" y="0">s</tspan></text>
    <text class="cls-2" transform="translate(15.89 32.51) rotate(-180) scale(1.02 1)"><tspan x="0" y="0">A</tspan><tspan x="1.99" y="0">c</tspan><tspan x="3.37" y="0">t</tspan><tspan x="4.31" y="0">u</tspan><tspan x="5.94" y="0">a</tspan><tspan x="7.25" y="0">l</tspan><tspan x="8.03" y="0">i</tspan><tspan x="8.88" y="0">t</tspan><tspan x="9.82" y="0">é</tspan><tspan x="11.26" y="0">s</tspan><tspan x="12.24" y="0"> </tspan></text>
    <text class="cls-2" transform="translate(2.83 32.56) rotate(-90) scale(1.02 1)"><tspan x="0" y="0">c</tspan><tspan x="1.38" y="0">u</tspan><tspan x="3.01" y="0">l</tspan><tspan x="3.79" y="0">t</tspan><tspan x="4.73" y="0">u</tspan><tspan x="6.36" y="0">r</tspan><tspan x="7.48" y="0">e</tspan><tspan x="8.91" y="0">l</tspan><tspan x="9.69" y="0">l</tspan><tspan x="10.48" y="0">e</tspan><tspan x="11.92" y="0">s</tspan><tspan x="13.13" y="0"> </tspan><tspan x="13.74" y="0">n</tspan><tspan x="15.36" y="0">u</tspan><tspan x="17" y="0">m</tspan><tspan x="19.34" y="0">é</tspan><tspan x="20.78" y="0">r</tspan><tspan x="21.89" y="0">i</tspan><tspan x="22.73" y="0">q</tspan><tspan x="24.28" y="0">u</tspan><tspan x="25.9" y="0">e</tspan><tspan x="27.34" y="0">s</tspan></text>
  </g>
</svg>