<svg width="45" height="52" viewBox="0 0 45 52" fill="none" xmlns="http://www.w3.org/2000/svg">
<path d="M35.7015 8.09311C33.7397 5.85351 32.6586 2.97732 32.6594 0H23.7915V35.5867C23.7231 37.5125 22.91 39.3366 21.5236 40.6749C20.1371 42.0132 18.2854 42.7612 16.3584 42.7615C12.2832 42.7615 8.89668 39.4324 8.89668 35.2997C8.89668 30.3635 13.6607 26.6614 18.5682 28.1824V19.1135C8.66709 17.7934 0 25.4847 0 35.2997C0 44.8565 7.92092 51.6582 16.3297 51.6582C25.3412 51.6582 32.6594 44.3399 32.6594 35.2997V17.2481C36.2554 19.8306 40.5728 21.2161 45 21.2085V12.3406C45 12.3406 39.6046 12.5989 35.7015 8.09311Z" fill="white"/>
</svg>
